<svg id="Component_27_7" data-name="Component 27 – 7" xmlns="http://www.w3.org/2000/svg" width="66" height="29" viewBox="0 0 66 29">
  <rect id="Rectangle_172" data-name="Rectangle 172" width="66" height="29" rx="14.5" fill="#d9d9d9"/>
  <circle id="Ellipse_95" data-name="Ellipse 95" cx="11" cy="11" r="11" transform="translate(5 4)" fill="#fff"/>
  <path id="Icon_feather-moon" data-name="Icon feather-moon" d="M13.849,8.447A5.991,5.991,0,1,1,7.336,1.875a4.731,4.731,0,0,0,.452,6.116,4.626,4.626,0,0,0,6.061.456Z" transform="translate(8.213 7.255)" fill="none" stroke="#000" stroke-linecap="round" stroke-linejoin="round" stroke-width="1.25"/>
  <path id="Icon_metro-brightness" data-name="Icon metro-brightness" d="M7.913,4.255a3.452,3.452,0,1,0,3.421,3.451A3.436,3.436,0,0,0,7.913,4.255Zm0,5.609V5.549a2.157,2.157,0,0,1,0,4.314Zm0,2.157a.859.859,0,0,1,.855.863v.863a.855.855,0,1,1-1.71,0v-.863A.859.859,0,0,1,7.913,12.02Zm0-8.629a.859.859,0,0,1-.855-.863V1.666a.855.855,0,1,1,1.71,0v.863A.859.859,0,0,1,7.913,3.392ZM13.9,6.843a.863.863,0,0,1,0,1.726h-.855a.863.863,0,0,1,0-1.726ZM3.637,7.706a.859.859,0,0,1-.855.863H1.926a.863.863,0,0,1,0-1.726h.855A.859.859,0,0,1,3.637,7.706Zm8.509,3.051.6.61a.868.868,0,0,1,0,1.22.85.85,0,0,1-1.209,0l-.6-.61a.868.868,0,0,1,0-1.22A.85.85,0,0,1,12.145,10.757ZM3.68,4.656l-.6-.61a.868.868,0,0,1,0-1.22.85.85,0,0,1,1.209,0l.6.61a.868.868,0,0,1,0,1.22A.85.85,0,0,1,3.68,4.656Zm8.466,0a.85.85,0,0,1-1.209,0,.868.868,0,0,1,0-1.22l.6-.61a.85.85,0,0,1,1.209,0,.868.868,0,0,1,0,1.22Zm-8.466,6.1a.85.85,0,0,1,1.209,0,.868.868,0,0,1,0,1.22l-.6.61a.85.85,0,0,1-1.209,0,.868.868,0,0,1,0-1.22Z" transform="translate(27.334 6.578)" opacity="0"/>
</svg>
