<svg id="Component_27_9" data-name="Component 27 – 9" xmlns="http://www.w3.org/2000/svg" width="66" height="31" viewBox="0 0 66 31">
  <rect id="Rectangle_172" data-name="Rectangle 172" width="66" height="31" rx="15.5" fill="#4c3ff5"/>
  <ellipse id="Ellipse_95" data-name="Ellipse 95" cx="10" cy="11.5" rx="10" ry="11.5" transform="translate(40 5)" fill="#fff"/>
  <path id="Icon_feather-moon" data-name="Icon feather-moon" d="M13.849,8.9A6.166,6.166,0,0,1,7.7,14.761,6.237,6.237,0,0,1,1.9,8.5,6.308,6.308,0,0,1,7.336,1.875a5.32,5.32,0,0,0,.452,6.538,4.408,4.408,0,0,0,6.061.488Z" transform="translate(29.635 7.884)" fill="none" stroke="#000" stroke-linecap="round" stroke-linejoin="round" stroke-width="1.25" opacity="0"/>
  <path id="Icon_metro-brightness" data-name="Icon metro-brightness" d="M7.913,4.493A3.563,3.563,0,0,0,4.492,8.182a3.563,3.563,0,0,0,3.421,3.689,3.563,3.563,0,0,0,3.421-3.689A3.563,3.563,0,0,0,7.913,4.493Zm0,6V5.876A2.229,2.229,0,0,1,10.05,8.182,2.229,2.229,0,0,1,7.913,10.488Zm0,2.306a.891.891,0,0,1,.855.922v.922a.858.858,0,1,1-1.71,0v-.922A.891.891,0,0,1,7.913,12.794Zm0-9.224a.891.891,0,0,1-.855-.922V1.726a.858.858,0,1,1,1.71,0v.922A.891.891,0,0,1,7.913,3.57ZM13.9,7.26a.925.925,0,0,1,0,1.845h-.855a.925.925,0,0,1,0-1.845ZM3.637,8.182a.891.891,0,0,1-.855.922H1.926a.925.925,0,0,1,0-1.845h.855A.891.891,0,0,1,3.637,8.182Zm8.509,3.261.6.652a.974.974,0,0,1,0,1.3.812.812,0,0,1-1.209,0l-.6-.652a.974.974,0,0,1,0-1.3A.812.812,0,0,1,12.145,11.443ZM3.68,4.921l-.6-.652a.974.974,0,0,1,0-1.3.812.812,0,0,1,1.209,0l.6.652a.974.974,0,0,1,0,1.3.812.812,0,0,1-1.209,0Zm8.466,0a.812.812,0,0,1-1.209,0,.974.974,0,0,1,0-1.3l.6-.652a.812.812,0,0,1,1.209,0,.974.974,0,0,1,0,1.3ZM3.68,11.443a.812.812,0,0,1,1.209,0,.974.974,0,0,1,0,1.3l-.6.652a.812.812,0,0,1-1.209,0,.974.974,0,0,1,0-1.3l.6-.652Z" transform="translate(42.574 8.381)"/>
</svg>
