<svg xmlns="http://www.w3.org/2000/svg" width="1058.966" height="460.4" viewBox="0 0 1058.966 460.4">
  <g id="Group_420" data-name="Group 420" transform="translate(-444.8 -5811.75)">
    <path id="Path_1054" data-name="Path 1054" d="M2936.955,6157.95H3995.521" transform="translate(-2491.955 114)" fill="none" stroke="#8980ff" stroke-linecap="round" stroke-width="0.4"/>
    <path id="Path_1065" data-name="Path 1065" d="M459.05,0H0" transform="translate(1003.76 5811.95) rotate(90)" fill="none" stroke="#8980ff" stroke-linecap="round" stroke-width="0.4" opacity="0.6"/>
    <path id="Path_1071" data-name="Path 1071" d="M459.05,0H0" transform="translate(523.76 5811.95) rotate(90)" fill="none" stroke="#8980ff" stroke-linecap="round" stroke-width="0.4" opacity="0.6"/>
    <path id="Path_1055" data-name="Path 1055" d="M2936.955,6157.95H3995.521" transform="translate(-2491.955 34)" fill="none" stroke="#8980ff" stroke-linecap="round" stroke-width="0.4" opacity="0.6"/>
    <path id="Path_1064" data-name="Path 1064" d="M459.05,0H0" transform="translate(1083.76 5811.95) rotate(90)" fill="none" stroke="#8980ff" stroke-linecap="round" stroke-width="0.4" opacity="0.6"/>
    <path id="Path_1070" data-name="Path 1070" d="M459.05,0H0" transform="translate(603.76 5811.95) rotate(90)" fill="none" stroke="#8980ff" stroke-linecap="round" stroke-width="0.4" opacity="0.6"/>
    <path id="Path_1056" data-name="Path 1056" d="M2936.955,6157.95H3995.521" transform="translate(-2491.955 -46)" fill="none" stroke="#8980ff" stroke-linecap="round" stroke-width="0.4" opacity="0.6"/>
    <path id="Path_1063" data-name="Path 1063" d="M459.05,0H0" transform="translate(1163.76 5811.95) rotate(90)" fill="none" stroke="#8980ff" stroke-linecap="round" stroke-width="0.4" opacity="0.6"/>
    <path id="Path_1069" data-name="Path 1069" d="M459.05,0H0" transform="translate(683.76 5811.95) rotate(90)" fill="none" stroke="#8980ff" stroke-linecap="round" stroke-width="0.4" opacity="0.6"/>
    <path id="Path_1057" data-name="Path 1057" d="M2936.955,6157.95H3995.521" transform="translate(-2491.955 -126)" fill="none" stroke="#8980ff" stroke-linecap="round" stroke-width="0.4" opacity="0.6"/>
    <path id="Path_1062" data-name="Path 1062" d="M459.05,0H0" transform="translate(1243.76 5811.95) rotate(90)" fill="none" stroke="#8980ff" stroke-linecap="round" stroke-width="0.4" opacity="0.6"/>
    <path id="Path_1068" data-name="Path 1068" d="M459.05,0H0" transform="translate(763.76 5811.95) rotate(90)" fill="none" stroke="#8980ff" stroke-linecap="round" stroke-width="0.4" opacity="0.6"/>
    <path id="Path_1058" data-name="Path 1058" d="M2936.955,6157.95H3995.521" transform="translate(-2491.955 -206)" fill="none" stroke="#8980ff" stroke-linecap="round" stroke-width="0.4" opacity="0.6"/>
    <path id="Path_1061" data-name="Path 1061" d="M459.05,0H0" transform="translate(1323.76 5811.95) rotate(90)" fill="none" stroke="#8980ff" stroke-linecap="round" stroke-width="0.4" opacity="0.6"/>
    <path id="Path_1067" data-name="Path 1067" d="M459.05,0H0" transform="translate(843.76 5811.95) rotate(90)" fill="none" stroke="#8980ff" stroke-linecap="round" stroke-width="0.4" opacity="0.6"/>
    <path id="Path_1059" data-name="Path 1059" d="M2936.955,6157.95H3995.521" transform="translate(-2491.955 -286)" fill="none" stroke="#8980ff" stroke-linecap="round" stroke-width="0.4" opacity="0.6"/>
    <path id="Path_1060" data-name="Path 1060" d="M459.05,0H0" transform="translate(1403.76 5811.95) rotate(90)" fill="none" stroke="#8980ff" stroke-linecap="round" stroke-width="0.4" opacity="0.6"/>
    <path id="Path_1066" data-name="Path 1066" d="M459.05,0H0" transform="translate(923.76 5811.95) rotate(90)" fill="none" stroke="#8980ff" stroke-linecap="round" stroke-width="0.4" opacity="0.6"/>
  </g>
</svg>
