<svg xmlns="http://www.w3.org/2000/svg" width="35.296" height="31.345" viewBox="0 0 35.296 31.345">
  <path id="Icon_ionic-logo-twitter" data-name="Icon ionic-logo-twitter" d="M31.413,7.393a12.443,12.443,0,0,1-3.535.973,6.176,6.176,0,0,0,2.708-3.408,12.23,12.23,0,0,1-3.91,1.494A6.153,6.153,0,0,0,16.029,10.66a6.026,6.026,0,0,0,.159,1.4A17.443,17.443,0,0,1,3.5,5.625a6.167,6.167,0,0,0,1.914,8.226,6.011,6.011,0,0,1-2.8-.769v.076A6.16,6.16,0,0,0,7.554,19.2a6.2,6.2,0,0,1-1.621.216A5.806,5.806,0,0,1,4.776,19.3a6.165,6.165,0,0,0,5.753,4.278,12.34,12.34,0,0,1-7.648,2.638,12.476,12.476,0,0,1-1.469-.089,17.2,17.2,0,0,0,9.421,2.784c11.335,0,17.527-9.39,17.527-17.533,0-.267-.006-.534-.019-.795A12.529,12.529,0,0,0,31.413,7.393Z" transform="matrix(0.966, 0.259, -0.259, 0.966, 6.118, -4.712)" fill="#4c3ff5"/>
</svg>
