<svg xmlns="http://www.w3.org/2000/svg" xmlns:xlink="http://www.w3.org/1999/xlink" width="376.888" height="376.888" viewBox="0 0 376.888 376.888">
  <defs>
    <clipPath id="clip-path">
      <rect width="268" height="265" fill="none"/>
    </clipPath>
  </defs>
  <g id="shape_of_color" data-name="shape of color" transform="translate(187.383) rotate(45)" clip-path="url(#clip-path)">
    <g transform="translate(-197 -3983)">
      <circle id="Ellipse_51" data-name="Ellipse 51" cx="7" cy="7" r="7" transform="translate(206 3992)" fill="#fbd100"/>
    </g>
    <g transform="translate(-152 -3983)">
      <circle id="Ellipse_51-2" data-name="Ellipse 51" cx="7" cy="7" r="7" transform="translate(206 3992)" fill="#fbd100"/>
    </g>
    <g transform="translate(-107 -3983)">
      <circle id="Ellipse_51-3" data-name="Ellipse 51" cx="7" cy="7" r="7" transform="translate(206 3992)" fill="#fbd100"/>
    </g>
    <g transform="translate(-62 -3983)">
      <circle id="Ellipse_51-4" data-name="Ellipse 51" cx="7" cy="7" r="7" transform="translate(206 3992)" fill="#fbd100"/>
    </g>
    <g transform="translate(-17 -3983)">
      <circle id="Ellipse_51-5" data-name="Ellipse 51" cx="7" cy="7" r="7" transform="translate(206 3992)" fill="#fbd100"/>
    </g>
    <g transform="translate(28 -3983)">
      <circle id="Ellipse_51-6" data-name="Ellipse 51" cx="7" cy="7" r="7" transform="translate(206 3992)" fill="#fbd100"/>
    </g>
    <g transform="translate(-197 -3938)">
      <circle id="Ellipse_51-7" data-name="Ellipse 51" cx="7" cy="7" r="7" transform="translate(206 3992)" fill="#fbd100"/>
    </g>
    <g transform="translate(-152 -3938)">
      <circle id="Ellipse_51-8" data-name="Ellipse 51" cx="7" cy="7" r="7" transform="translate(206 3992)" fill="#fbd100"/>
    </g>
    <g transform="translate(-107 -3938)">
      <circle id="Ellipse_51-9" data-name="Ellipse 51" cx="7" cy="7" r="7" transform="translate(206 3992)" fill="#fbd100"/>
    </g>
    <g transform="translate(-62 -3938)">
      <circle id="Ellipse_51-10" data-name="Ellipse 51" cx="7" cy="7" r="7" transform="translate(206 3992)" fill="#fbd100"/>
    </g>
    <g transform="translate(-17 -3938)">
      <circle id="Ellipse_51-11" data-name="Ellipse 51" cx="7" cy="7" r="7" transform="translate(206 3992)" fill="#fbd100"/>
    </g>
    <g transform="translate(28 -3938)">
      <circle id="Ellipse_51-12" data-name="Ellipse 51" cx="7" cy="7" r="7" transform="translate(206 3992)" fill="#fbd100"/>
    </g>
    <g transform="translate(-197 -3893)">
      <circle id="Ellipse_51-13" data-name="Ellipse 51" cx="7" cy="7" r="7" transform="translate(206 3992)" fill="#fbd100"/>
    </g>
    <g transform="translate(-152 -3893)">
      <circle id="Ellipse_51-14" data-name="Ellipse 51" cx="7" cy="7" r="7" transform="translate(206 3992)" fill="#fbd100"/>
    </g>
    <g transform="translate(-107 -3893)">
      <circle id="Ellipse_51-15" data-name="Ellipse 51" cx="7" cy="7" r="7" transform="translate(206 3992)" fill="#fbd100"/>
    </g>
    <g transform="translate(-62 -3893)">
      <circle id="Ellipse_51-16" data-name="Ellipse 51" cx="7" cy="7" r="7" transform="translate(206 3992)" fill="#fbd100"/>
    </g>
    <g transform="translate(-17 -3893)">
      <circle id="Ellipse_51-17" data-name="Ellipse 51" cx="7" cy="7" r="7" transform="translate(206 3992)" fill="#fbd100"/>
    </g>
    <g transform="translate(28 -3893)">
      <circle id="Ellipse_51-18" data-name="Ellipse 51" cx="7" cy="7" r="7" transform="translate(206 3992)" fill="#fbd100"/>
    </g>
    <g transform="translate(-197 -3848)">
      <circle id="Ellipse_51-19" data-name="Ellipse 51" cx="7" cy="7" r="7" transform="translate(206 3992)" fill="#fbd100"/>
    </g>
    <g transform="translate(-152 -3848)">
      <circle id="Ellipse_51-20" data-name="Ellipse 51" cx="7" cy="7" r="7" transform="translate(206 3992)" fill="#fbd100"/>
    </g>
    <g transform="translate(-107 -3848)">
      <circle id="Ellipse_51-21" data-name="Ellipse 51" cx="7" cy="7" r="7" transform="translate(206 3992)" fill="#fbd100"/>
    </g>
    <g transform="translate(-62 -3848)">
      <circle id="Ellipse_51-22" data-name="Ellipse 51" cx="7" cy="7" r="7" transform="translate(206 3992)" fill="#fbd100"/>
    </g>
    <g transform="translate(-17 -3848)">
      <circle id="Ellipse_51-23" data-name="Ellipse 51" cx="7" cy="7" r="7" transform="translate(206 3992)" fill="#fbd100"/>
    </g>
    <g transform="translate(28 -3848)">
      <circle id="Ellipse_51-24" data-name="Ellipse 51" cx="7" cy="7" r="7" transform="translate(206 3992)" fill="#fbd100"/>
    </g>
    <g transform="translate(-197 -3803)">
      <circle id="Ellipse_51-25" data-name="Ellipse 51" cx="7" cy="7" r="7" transform="translate(206 3992)" fill="#fbd100"/>
    </g>
    <g transform="translate(-152 -3803)">
      <circle id="Ellipse_51-26" data-name="Ellipse 51" cx="7" cy="7" r="7" transform="translate(206 3992)" fill="#fbd100"/>
    </g>
    <g transform="translate(-107 -3803)">
      <circle id="Ellipse_51-27" data-name="Ellipse 51" cx="7" cy="7" r="7" transform="translate(206 3992)" fill="#fbd100"/>
    </g>
    <g transform="translate(-62 -3803)">
      <circle id="Ellipse_51-28" data-name="Ellipse 51" cx="7" cy="7" r="7" transform="translate(206 3992)" fill="#fbd100"/>
    </g>
    <g transform="translate(-17 -3803)">
      <circle id="Ellipse_51-29" data-name="Ellipse 51" cx="7" cy="7" r="7" transform="translate(206 3992)" fill="#fbd100"/>
    </g>
    <g transform="translate(28 -3803)">
      <circle id="Ellipse_51-30" data-name="Ellipse 51" cx="7" cy="7" r="7" transform="translate(206 3992)" fill="#fbd100"/>
    </g>
    <g transform="translate(-197 -3758)">
      <circle id="Ellipse_51-31" data-name="Ellipse 51" cx="7" cy="7" r="7" transform="translate(206 3992)" fill="#fbd100"/>
    </g>
    <g transform="translate(-152 -3758)">
      <circle id="Ellipse_51-32" data-name="Ellipse 51" cx="7" cy="7" r="7" transform="translate(206 3992)" fill="#fbd100"/>
    </g>
    <g transform="translate(-107 -3758)">
      <circle id="Ellipse_51-33" data-name="Ellipse 51" cx="7" cy="7" r="7" transform="translate(206 3992)" fill="#fbd100"/>
    </g>
    <g transform="translate(-62 -3758)">
      <circle id="Ellipse_51-34" data-name="Ellipse 51" cx="7" cy="7" r="7" transform="translate(206 3992)" fill="#fbd100"/>
    </g>
    <g transform="translate(-17 -3758)">
      <circle id="Ellipse_51-35" data-name="Ellipse 51" cx="7" cy="7" r="7" transform="translate(206 3992)" fill="#fbd100"/>
    </g>
    <g transform="translate(28 -3758)">
      <circle id="Ellipse_51-36" data-name="Ellipse 51" cx="7" cy="7" r="7" transform="translate(206 3992)" fill="#fbd100"/>
    </g>
  </g>
</svg>
