<svg xmlns="http://www.w3.org/2000/svg" width="33.385" height="60.878" viewBox="0 0 33.385 60.878">
  <g id="Smartphone" transform="translate(-120 -8)">
    <path id="Path_1040" data-name="Path 1040" d="M148.475,8H124.91A4.915,4.915,0,0,0,120,12.91V63.969a4.915,4.915,0,0,0,4.91,4.91h23.566a4.915,4.915,0,0,0,4.91-4.91V12.91A4.915,4.915,0,0,0,148.475,8ZM143.35,9.964l-.589,2.946H130.624l-.589-2.946Zm8.071,54a2.949,2.949,0,0,1-2.946,2.946H124.91a2.949,2.949,0,0,1-2.946-2.946V12.91a2.949,2.949,0,0,1,2.946-2.946h3.123l.824,4.12a.982.982,0,0,0,.963.789h13.747a.982.982,0,0,0,.963-.789l.824-4.12h3.123a2.949,2.949,0,0,1,2.946,2.946Z"/>
    <path id="Path_1041" data-name="Path 1041" d="M158.873,456h-5.891a.982.982,0,1,0,0,1.964h5.891a.982.982,0,1,0,0-1.964Z" transform="translate(-28.072 -393.013)"/>
    <path id="Path_1042" data-name="Path 1042" d="M225.964,456h-.982a.982.982,0,1,0,0,1.964h.982a.982.982,0,1,0,0-1.964Z" transform="translate(-91.235 -393.013)"/>
  </g>
</svg>
